<?xml version="1.0" encoding="UTF-8"?>
<svg id="Layer_1" data-name="Layer 1" xmlns="http://www.w3.org/2000/svg" xmlns:xlink="http://www.w3.org/1999/xlink" viewBox="0 0 347.45 93.72">
  <defs>
    <style>
      .cls-1 {
        fill: url(#linear-gradient-2);
      }

      .cls-2, .cls-3 {
        fill: #fff;
      }

      .cls-4 {
        fill: #344c9b;
      }

      .cls-5 {
        fill: url(#linear-gradient-3);
      }

      .cls-6 {
        fill: #f78e1e;
      }

      .cls-7 {
        fill: #63bf7a;
      }

      .cls-3 {
        opacity: .25;
      }

      .cls-8 {
        fill: #0db14b;
      }

      .cls-9 {
        fill: #00b259;
      }

      .cls-10 {
        fill: url(#linear-gradient);
      }
    </style>
    <linearGradient id="linear-gradient" x1="63.74" y1="-11.15" x2="63.74" y2="53.18" gradientUnits="userSpaceOnUse">
      <stop offset="0" stop-color="#fdc388"/>
      <stop offset="1" stop-color="#f78e1e"/>
    </linearGradient>
    <linearGradient id="linear-gradient-2" x1="64.74" y1="-11.15" x2="64.74" y2="53.18" xlink:href="#linear-gradient"/>
    <linearGradient id="linear-gradient-3" x1="57.2" y1="15.61" x2="47.11" y2="37.49" gradientUnits="userSpaceOnUse">
      <stop offset="0" stop-color="#fff"/>
      <stop offset=".1" stop-color="#8488bf"/>
      <stop offset=".31" stop-color="#7278b6"/>
      <stop offset="1" stop-color="#344c9b"/>
    </linearGradient>
  </defs>
  <rect class="cls-8" x="9.63" width="50.1" height="74.16"/>
  <rect class="cls-7" x="38.68" y="19.9" width="14.38" height="14.69"/>
  <rect class="cls-7" x="16.96" y="19.9" width="14.38" height="14.69"/>
  <rect class="cls-7" x="38.68" y="36.9" width="14.38" height="14.69"/>
  <rect class="cls-7" x="16.96" y="36.9" width="14.38" height="14.69"/>
  <rect class="cls-7" x="38.68" y="53.9" width="14.38" height="14.69"/>
  <rect class="cls-7" x="16.96" y="53.9" width="14.38" height="14.69"/>
  <rect class="cls-7" x="38.68" y="2.9" width="14.38" height="14.69"/>
  <rect class="cls-7" x="16.96" y="2.9" width="14.38" height="14.69"/>
  <g>
    <g>
      <path class="cls-4" d="M100.12,46.04c1.46.81,3.96,1.41,6.02,1.41,3.36,0,4.99-1.74,4.99-4.12,0-2.66-1.63-3.96-4.72-5.96-4.99-3.03-6.88-6.88-6.88-10.19,0-5.85,3.9-10.73,11.54-10.73,2.39,0,4.66.65,5.75,1.3l-1.14,6.12c-1.03-.65-2.6-1.25-4.66-1.25-3.04,0-4.5,1.84-4.5,3.79,0,2.17,1.08,3.31,5.04,5.69,4.82,2.93,6.61,6.61,6.61,10.46,0,6.67-4.93,11.06-12.09,11.06-2.93,0-5.8-.76-6.99-1.46l1.03-6.12Z"/>
      <path class="cls-4" d="M141.47,39.97c0,11.06-6.12,13.77-10.14,13.77-6.34,0-10.14-4.99-10.14-13.6,0-9.54,4.99-13.77,10.24-13.77,6.23,0,10.03,5.26,10.03,13.6ZM128.25,39.97c0,4.55.7,8.35,3.25,8.35,2.28,0,2.87-4.44,2.87-8.35,0-3.63-.6-8.24-2.98-8.24-2.6,0-3.14,4.61-3.14,8.24Z"/>
      <path class="cls-4" d="M164.89,45.23c0,2.82.11,5.58.22,8.08h-6.12l-.38-2.82h-.11c-1.25,1.79-3.42,3.25-6.12,3.25-5.04,0-7.1-3.74-7.1-10.89v-16.04h7.16v15.28c0,3.47.65,5.69,2.66,5.69,1.19,0,1.95-.92,2.28-1.79.27-.54.43-1.36.43-2.28v-16.91h7.1v18.43Z"/>
      <path class="cls-4" d="M178.33,19.86v6.94h5.2v5.04h-5.2v12.09c0,3.09,1.3,3.85,2.71,3.85.7,0,1.25-.05,1.84-.16l.05,5.53c-.97.27-2.44.49-4.33.49-2.06,0-3.85-.49-5.1-1.68-1.46-1.41-2.28-3.42-2.28-7.59v-12.52h-3.14v-5.04h3.14v-4.72l7.1-2.22Z"/>
      <path class="cls-4" d="M186.84,15.8h7.1v13.77h.11c.6-.92,1.41-1.68,2.28-2.28,1.03-.6,2.28-.92,3.58-.92,4.88,0,6.78,4.12,6.78,10.84v16.1h-7.1v-16.1c0-2.6-.49-4.88-2.6-4.88-1.19,0-2.22.7-2.76,2.49-.11.43-.27,1.41-.27,2.01v16.48h-7.1V15.8Z"/>
      <path class="cls-9" d="M220.93,16.77h15.88v6.18h-8.78v9.38h8.24v5.91h-8.24v15.07h-7.1V16.77Z"/>
      <path class="cls-9" d="M241.37,15.8h7.1v37.51h-7.1V15.8Z"/>
      <path class="cls-9" d="M272.91,39.97c0,11.06-6.12,13.77-10.14,13.77-6.34,0-10.14-4.99-10.14-13.6,0-9.54,4.99-13.77,10.25-13.77,6.23,0,10.03,5.26,10.03,13.6ZM259.69,39.97c0,4.55.71,8.35,3.25,8.35,2.28,0,2.87-4.44,2.87-8.35,0-3.63-.6-8.24-2.98-8.24-2.6,0-3.14,4.61-3.14,8.24Z"/>
      <path class="cls-9" d="M276.87,34.77c0-2.66-.11-5.53-.22-7.97h6.18l.38,3.85h.16c1.19-2.82,3.31-4.28,5.26-4.28.71,0,1.08,0,1.52.11v7.05c-.43-.11-.92-.11-1.52-.11-1.52,0-3.52,1.03-4.34,3.8-.16.6-.27,1.52-.27,2.66v13.44h-7.15v-18.54Z"/>
      <path class="cls-9" d="M299.96,19.75c.05,2.28-1.57,3.85-3.74,3.85-1.95,0-3.58-1.57-3.52-3.85-.05-2.39,1.68-3.85,3.63-3.85,2.06,0,3.63,1.46,3.63,3.85ZM292.86,53.31v-26.51h7.1v26.51h-7.1Z"/>
      <path class="cls-9" d="M324.19,15.8v29.65c0,2.54.11,5.42.22,7.86h-6.12l-.38-2.98h-.11c-.97,1.84-3.09,3.41-5.53,3.41-5.64,0-8.24-6.23-8.24-13.66,0-9.21,4.01-13.71,8.51-13.71,2.33,0,3.79,1.14,4.44,2.66h.11v-13.23h7.1ZM317.09,36.99c0-.49,0-1.03-.05-1.57-.27-1.63-1.14-3.09-2.55-3.09-2.49,0-3.41,3.63-3.41,7.91,0,5.04,1.35,7.7,3.36,7.7.87,0,1.9-.49,2.44-2.33.16-.38.22-.98.22-1.63v-6.99Z"/>
      <path class="cls-9" d="M347.01,47.23c0,2.11.11,4.28.43,6.07h-6.4l-.38-2.6h-.11c-1.46,2.06-3.53,3.03-5.86,3.03-4.01,0-6.99-3.36-6.99-8.07,0-6.94,6.12-9.81,12.14-9.87v-.6c0-2.06-1.25-3.58-3.74-3.58-2.11,0-3.85.54-5.42,1.52l-1.3-4.77c1.46-.87,4.55-2.01,8.24-2.01,8.08,0,9.38,5.64,9.38,11v9.86ZM340.07,40.4c-2.38.05-5.64.81-5.64,4.5,0,2.66,1.46,3.63,2.55,3.63s2.44-.7,2.93-2.28c.11-.38.16-.81.16-1.25v-4.61Z"/>
    </g>
    <path class="cls-3" d="M157.79,40.69h7.1v-13.89h-7.1v13.89ZM178.33,19.86l-7.1,2.22v4.72h-3.14v5.04h3.14v8.85h7.1v-8.85h5.2v-5.04h-5.2v-6.94ZM131.45,26.37c-5.26,0-10.24,4.23-10.24,13.77,0,.19.01.37.02.56h7.04c0-.24,0-.48,0-.72,0-3.63.54-8.24,3.14-8.24,2.39,0,2.98,4.61,2.98,8.24,0,.24,0,.48,0,.72h7.08c0-.24.02-.47.02-.72,0-8.35-3.79-13.6-10.03-13.6ZM199.9,26.37c-1.3,0-2.55.33-3.58.92-.87.6-1.68,1.35-2.28,2.28h-.11v-13.77h-7.1v24.9h7.1v-3.86c0-.6.16-1.57.27-2.01.54-1.79,1.57-2.49,2.76-2.49,2.11,0,2.6,2.28,2.6,4.88v3.49h7.1v-3.49c0-6.72-1.9-10.84-6.78-10.84ZM337.63,26.37c-3.69,0-6.78,1.14-8.24,2.01l1.3,4.77c1.57-.98,3.31-1.52,5.42-1.52,2.49,0,3.74,1.52,3.74,3.58v.6c-4.3.04-8.64,1.53-10.77,4.9h8.78c.74-.19,1.52-.27,2.21-.29v.29h6.94v-3.32c0-5.37-1.3-11-9.38-11ZM317.09,29.02h-.11c-.65-1.52-2.11-2.66-4.44-2.66-4.5,0-8.51,4.5-8.51,13.71,0,.21.01.41.01.61h7.05c0-.16-.01-.29-.01-.45,0-4.28.92-7.91,3.41-7.91,1.41,0,2.28,1.46,2.55,3.09.05.54.05,1.08.05,1.57v3.7h7.1V15.8h-7.1v13.23ZM262.89,26.37c-5.26,0-10.25,4.23-10.25,13.77,0,.19.01.37.02.56h7.04c0-.24,0-.48,0-.72,0-3.63.54-8.24,3.14-8.24,2.38,0,2.98,4.61,2.98,8.24,0,.24,0,.48,0,.72h7.08c0-.24.02-.47.02-.72,0-8.35-3.79-13.6-10.03-13.6ZM111.55,32.11c-3.96-2.38-5.04-3.52-5.04-5.69,0-1.95,1.46-3.79,4.5-3.79,2.06,0,3.63.6,4.66,1.25l1.14-6.12c-1.08-.65-3.36-1.3-5.75-1.3-7.64,0-11.54,4.88-11.54,10.73,0,3.31,1.9,7.16,6.88,10.19,1.87,1.21,3.19,2.17,3.95,3.32h7.65c-.52-3.16-2.43-6.13-6.46-8.58ZM292.86,40.69h7.1v-13.89h-7.1v13.89ZM283.38,30.65h-.16l-.38-3.85h-6.18c.11,2.44.22,5.31.22,7.97v5.93h7.15v-.83c0-1.14.11-2.06.27-2.66.81-2.77,2.82-3.8,4.34-3.8.6,0,1.08,0,1.52.11v-7.05c-.43-.11-.81-.11-1.52-.11-1.95,0-4.07,1.46-5.26,4.28ZM296.33,15.91c-1.95,0-3.69,1.46-3.63,3.85-.05,2.28,1.57,3.85,3.52,3.85,2.17,0,3.79-1.57,3.74-3.85,0-2.39-1.57-3.85-3.63-3.85ZM145.27,40.69h7.16v-13.89h-7.16v13.89ZM241.37,40.69h7.1V15.8h-7.1v24.9ZM220.93,40.69h7.1v-2.46h8.24v-5.91h-8.24v-9.38h8.78v-6.18h-15.88v23.92Z"/>
    <g>
      <g>
        <path class="cls-6" d="M99.09,60.74c1.09-.21,2.47-.34,3.8-.34,1.91,0,3.61.26,4.78,1.3,1.09.96,1.41,2.13,1.41,3.64,0,1.87-.93,3.56-2.76,4.39v.05c1.22.47,1.83,1.59,2.18,3.46.34,1.95.82,4.11,1.14,4.76h-3.64c-.21-.49-.61-2.26-.88-4.19-.32-2.18-.88-2.81-2.05-2.81h-.51v6.99h-3.48v-17.26ZM102.57,68.38h.61c1.52,0,2.39-1.2,2.39-2.73s-.61-2.55-2.18-2.6c-.29,0-.64.03-.82.11v5.22Z"/>
        <path class="cls-6" d="M122.34,70.31h-4.09v4.73h4.62v2.96h-8.11v-17.52h7.79v2.96h-4.31v4.03h4.09v2.83Z"/>
        <path class="cls-6" d="M131.27,74l-.8,4h-3.38l3.88-17.52h4.17l3.48,17.52h-3.37l-.77-4h-3.22ZM134.17,71.35l-.58-3.67c-.19-1.06-.43-2.81-.58-3.98h-.08c-.19,1.17-.45,2.99-.64,4l-.67,3.64h2.55Z"/>
        <path class="cls-6" d="M143.79,60.48h3.48v14.64h4.6v2.89h-8.08v-17.52Z"/>
        <path class="cls-6" d="M157.56,63.63h-3.16v-3.14h9.83v3.14h-3.19v14.38h-3.48v-14.38Z"/>
        <path class="cls-6" d="M172.15,78.01v-6.71l-3.93-10.82h3.72l1.22,4.19c.32,1.12.66,2.42.93,3.72h.05c.21-1.27.5-2.55.82-3.79l1.06-4.11h3.62l-4.01,10.69v6.84h-3.48Z"/>
        <path class="cls-4" d="M202.39,71.87c-.08-1.66-.21-3.9-.16-5.8h-.08c-.32,1.87-.8,4.03-1.14,5.38l-1.54,6.27h-2.47l-1.49-6.16c-.35-1.4-.83-3.59-1.09-5.49h-.08c-.05,1.9-.16,4.11-.27,5.85l-.29,6.08h-3l1.3-17.52h3.67l1.44,6.34c.5,2.21.95,4.16,1.28,6.14h.05c.26-1.95.66-3.93,1.14-6.14l1.41-6.34h3.67l1.09,17.52h-3.11l-.32-6.14Z"/>
        <path class="cls-4" d="M214.4,74l-.8,4h-3.37l3.88-17.52h4.17l3.48,17.52h-3.38l-.77-4h-3.22ZM217.3,71.35l-.58-3.67c-.19-1.06-.43-2.81-.59-3.98h-.08c-.19,1.17-.45,2.99-.64,4l-.66,3.64h2.55Z"/>
        <path class="cls-4" d="M226.92,78.01v-17.52h3.19l2.76,6.86c.53,1.35,1.41,3.59,1.91,5.12h.05c-.11-1.85-.34-4.89-.34-8.11v-3.87h3.06v17.52h-3.19l-2.74-6.66c-.58-1.48-1.41-3.69-1.8-5.28h-.06c.08,1.77.21,4.47.21,8.01v3.93h-3.06Z"/>
        <path class="cls-4" d="M246.67,74l-.8,4h-3.37l3.88-17.52h4.17l3.48,17.52h-3.37l-.77-4h-3.22ZM249.57,71.35l-.58-3.67c-.19-1.06-.42-2.81-.58-3.98h-.08c-.19,1.17-.45,2.99-.64,4l-.66,3.64h2.55Z"/>
        <path class="cls-4" d="M268.7,77.54c-.77.31-2.42.62-3.72.62-2.05,0-3.59-.57-4.78-1.74-1.54-1.46-2.37-4.06-2.31-7.07.08-6.37,3.8-9.02,7.6-9.02,1.36,0,2.37.26,2.93.52l-.61,2.94c-.5-.23-1.17-.39-2.05-.39-2.37,0-4.25,1.58-4.25,6.16,0,4.21,1.67,5.72,3.29,5.72.32,0,.56-.03.69-.08v-4.24h-1.59v-2.78h4.81v9.36Z"/>
        <path class="cls-4" d="M282.07,70.31h-4.09v4.73h4.62v2.96h-8.11v-17.52h7.79v2.96h-4.31v4.03h4.09v2.83Z"/>
        <path class="cls-4" d="M299.1,71.87c-.08-1.66-.21-3.9-.16-5.8h-.08c-.32,1.87-.8,4.03-1.14,5.38l-1.54,6.27h-2.47l-1.49-6.16c-.35-1.4-.83-3.59-1.09-5.49h-.08c-.05,1.9-.16,4.11-.27,5.85l-.29,6.08h-3l1.3-17.52h3.67l1.44,6.34c.5,2.21.95,4.16,1.27,6.14h.05c.27-1.95.66-3.93,1.14-6.14l1.41-6.34h3.67l1.09,17.52h-3.11l-.32-6.14Z"/>
        <path class="cls-4" d="M315.85,70.31h-4.09v4.73h4.62v2.96h-8.11v-17.52h7.79v2.96h-4.3v4.03h4.09v2.83Z"/>
        <path class="cls-4" d="M321.93,78.01v-17.52h3.19l2.76,6.86c.53,1.35,1.41,3.59,1.91,5.12h.05c-.11-1.85-.35-4.89-.35-8.11v-3.87h3.06v17.52h-3.19l-2.74-6.66c-.58-1.48-1.41-3.69-1.81-5.28h-.05c.08,1.77.21,4.47.21,8.01v3.93h-3.06Z"/>
        <path class="cls-4" d="M340.78,63.63h-3.16v-3.14h9.83v3.14h-3.19v14.38h-3.48v-14.38Z"/>
      </g>
      <path class="cls-3" d="M258.01,67.61h3.62c.47-3.09,2.12-4.22,4.11-4.22.88,0,1.54.16,2.05.39l.61-2.94c-.56-.26-1.57-.52-2.93-.52-3.43,0-6.79,2.18-7.47,7.29ZM246.38,60.48l-1.58,7.13h2.9c.18-1.03.44-2.77.62-3.91h.08c.15,1.15.39,2.84.57,3.91h3l-1.42-7.13h-4.17ZM214.11,60.48l-1.58,7.13h2.9c.18-1.03.44-2.77.62-3.91h.08c.16,1.15.39,2.84.57,3.91h3l-1.42-7.13h-4.17ZM274.49,67.61h7.57v-.14h-4.09v-4.03h4.31v-2.96h-7.79v7.13ZM230.11,60.48h-3.19v7.13h2.91c-.03-.57-.05-1.09-.07-1.54h.06c.12.47.28,1,.45,1.54h2.71c-.04-.09-.07-.19-.11-.27l-2.76-6.86ZM337.62,60.48v3.14h3.16v3.99h3.48v-3.99h3.19v-3.14h-9.83ZM292.46,60.48h-3.67l-.53,7.13h2.74c.02-.53.04-1.04.05-1.54h.08c.07.5.16,1.02.25,1.54h2.69c-.06-.26-.12-.52-.18-.79l-1.44-6.34ZM201.06,60.48l-1.41,6.34c-.06.27-.11.53-.17.79h2.38c.1-.52.2-1.04.28-1.54h.08c-.01.5-.01,1.02,0,1.54h2.95l-.44-7.13h-3.67ZM308.27,67.61h7.57v-.14h-4.09v-4.03h4.3v-2.96h-7.79v7.13ZM297.78,60.48l-1.41,6.34c-.06.27-.11.53-.17.79h2.38c.1-.52.2-1.04.29-1.54h.08c-.01.5-.01,1.02,0,1.54h2.95l-.44-7.13h-3.67ZM325.12,60.48h-3.19v7.13h2.91c-.02-.57-.05-1.09-.07-1.54h.05c.12.47.28,1,.45,1.54h2.71c-.03-.09-.07-.19-.1-.27l-2.76-6.86ZM154.39,63.63h3.16v3.99h3.48v-3.99h3.19v-3.14h-9.83v3.14ZM174.96,64.59c-.25,1-.48,2.01-.68,3.03h2.67l2.68-7.13h-3.62l-1.06,4.11ZM171.93,60.48h-3.72l2.59,7.13h3.11c-.24-1.04-.51-2.05-.76-2.95l-1.22-4.19ZM195.74,60.48h-3.67l-.53,7.13h2.74c.02-.53.04-1.04.05-1.54h.08c.07.5.15,1.02.25,1.54h2.7c-.06-.26-.12-.52-.18-.79l-1.44-6.34ZM329.51,64.36c0,1.12.03,2.22.07,3.26h2.98v-7.13h-3.06v3.87ZM234.5,64.36c0,1.12.03,2.22.07,3.26h2.98v-7.13h-3.06v3.87ZM143.79,67.61h3.48v-7.13h-3.48v7.13ZM130.98,60.48l-1.58,7.13h2.9c.18-1.03.44-2.77.62-3.91h.08c.16,1.15.39,2.84.57,3.91h3l-1.42-7.13h-4.17ZM102.89,60.4c-1.33,0-2.71.13-3.8.34v6.87h3.48v-4.45c.19-.08.53-.11.82-.11,1.57.05,2.18,1.12,2.18,2.6,0,.78-.23,1.47-.65,1.96h3.62c.35-.69.53-1.46.53-2.27,0-1.51-.32-2.68-1.41-3.64-1.17-1.04-2.87-1.3-4.78-1.3ZM114.77,67.61h7.57v-.14h-4.09v-4.03h4.31v-2.96h-7.79v7.13Z"/>
    </g>
  </g>
  <polygon class="cls-2" points="24.15 39.27 97.32 39.27 61.13 10.24 24.15 39.27"/>
  <rect class="cls-2" x="38.68" y="34.9" width="50.1" height="44.14"/>
  <polygon class="cls-10" points="27.16 38.4 100.33 38.4 64.14 9.37 27.16 38.4"/>
  <rect class="cls-2" x="18.51" y="22.16" width="7.01" height="6.98"/>
  <rect class="cls-2" x="31.51" y="22.16" width="7.01" height="6.98"/>
  <rect class="cls-1" x="39.69" y="34.02" width="50.1" height="44.14"/>
  <path class="cls-2" d="M83.34,69.16l-.02-.74c-.03-1.42-.09-2.56-.19-3.5-.06-.65-.37-2.04-2.26-6.46-1.35-3.16-3.06-6.87-5.08-11.04-.12-.29-.19-.59-.18-.86,0-.04.01-.19.21-.51.38-.62.54-1.03.54-1.42v-.08s-.01-.08-.01-.08c-.23-1.6-1.08-3.08-2.54-4.4-2.94-2.63-5.01-5.89-6.16-9.71-.9-2.91-1.75-6.08-2.55-9.44l-.02-.08-.03-.08c-.62-1.57-2.08-3.45-5.55-3.51-.82-.01-1.47,0-1.98.05l-.99.1-.02,1c-.01.68.02,1.52.1,2.48l-.09-.28-.37-.22c-.53-.32-1.18-.49-1.91-.5-.89-.01-4.41.03-10.47.14,0,0-5.88.06-5.88.06-1.91.02-3.85.01-5.78-.02-1.42-.03-2.11-.17-2.44-.28-.27-.85-.53-1.7-.77-2.5l-.08-.26-.19-.19c-.42-.43-.96-.67-1.59-.68h-.08s-.08,0-.08,0c-1.71.22-3.44.4-5.13.54-1.7.14-4.16.18-7.3.13l-13.15-.23-.96-.02-.16.95-.18,1.04v.08s-.02.08-.02.08c-.02,1.02.43,1.98,1.35,2.86.29.27.57.5.86.74-.38.94-.76,1.89-1.13,2.86l-.5,1.29,1.37.21,2.3.36.92.15.25-.7.19-.04c.43-.09,1.42-.22,2.95-.38,1.33-.14,2.4-.35,3.24-.64.37.23.84.45,1.48.68,2.21.82,4.46,1.76,6.69,2.79l1.19.55c.41.71.78,1.39,1.11,2.05.92,1.86,2.08,2.81,3.44,2.84,1.38.02,2.87-.52,4.57-1.65,1.31-.87,2.89-1.37,4.67-1.49l1.4-.09-.4-1.35c-.04-.14-.12-.29-.18-.44.39-.11.8-.17,1.23-.16,1.25.02,2.44.49,3.62,1.43,1.23.98,2.21,2.24,2.9,3.74.62,1.36,2.29,2.84,5.26,4.65,1.91,1.19,2.92,2.71,3.06,4.64.08.66,0,1.51-.26,2.57-.27,1.16-.66,2.42-1.14,3.74l-.03.08s-.02.08-.02.08l-.07.33-.19.91c-.13.62-.2,1.21-.21,1.76-.02.81.08,1.56.3,2.21.19.58.49,1.06.86,1.47l-.3.06.82,1.37c.29.49,1.14,1.64,2.58,3.52.28.39.57.79.83,1.17.67,1.05,1.29,2.26,1.82,3.55.78,1.89,1.1,2.44,1.3,2.71l-.34.22.51.39c0,.14-.01.28-.01.4v1.12s1.1.02,1.1.02l1.28.02h.65c.38.54.74,1.11,1.08,1.72.3.59.93,1.8,2.09,3.95l.48.89.93-.38c.38-.16.59-.18.68-.18.98.02,1.82,1.59,2.23,2.53.63,1.81,1.33,3.73,2.04,5.62l.35.92.96-.23c.26-.06.99-.17,3.02-.37.51-.05,1.01-.14,1.5-.28-.33.46-.59.9-.71,1.31-.4.01-.8.13-1.17.37-.29.19-.53.41-.71.64-.58-.11-1.25.05-2.01.49-.14.08-.42.25-.68.51l-.98-.02s-.95-.02-.96-.02c-.77,0-1.55.2-2.31.61-.67.37-1.65,1.11-3,2.25l-2.13,1.8,2.79.17q.34.02,3.23-1.21c.63-.26,1.31-.38,2-.37l1.29.02-.13-1.05s0,0,0,.01c.31.4.77.65,1.27.67.94.04,1.73-.67,2.24-1.22l.21-.23.06-.28,1.06-.13.53-.06s.29-.45.29-.45c.11-.18.24-.34.39-.48l.32-.3c1.49-.24,2.57-1.97,3.29-3.33,1.11-2.13,1.67-3.94,1.7-5.52l-.83-.11c.29-1.02.59-2.07.89-3.18.45-1.65.7-3.64.74-5.92,0-.05,0-.14-.03-1.42Z"/>
  <path class="cls-5" d="M76.49,88.44c-.22.2-.41.44-.57.7-.37.04-.75.09-1.13.13.06-.26.26-.51.61-.74.35-.23.71-.26,1.09-.1ZM74.07,89.4c-.06.21-.12.45-.18.72-.83.89-1.44,1.1-1.82.61-.26-.33-.08-.67.56-1.03.63-.37,1.11-.46,1.44-.3ZM73.52,83.9l-.31-.67-1.28-.35c.47.45,1,.79,1.59,1.02ZM70.39,90.33c-.27.27-.38.6-.33.99-.85-.02-1.67.14-2.47.46-1.76.75-2.67,1.12-2.72,1.12,1.29-1.09,2.23-1.8,2.81-2.12.59-.32,1.18-.48,1.75-.47l.95.02ZM60.14,64.65c-.11.05-.22.08-.32.07-.29,1.17-.55,2.34-.78,3.52.27-.43.47-.77.58-1.04.33-.63.51-1.48.52-2.56ZM14.61,24.57c-.53,0-.96-.01-1.28-.02-.32,0-.56-.01-.72-.01.9.07,1.57.08,2,.03ZM7.42,24.43l-1.7.29.02-1.3-.02,1.3,1.7-.29ZM56.44,53.52l-1.46,1.34c-.32-.16-.53-.61-.62-1.33-.09-.72-.49-1.09-1.18-1.1-.22.26-.33.5-.33.72,0,.21.05.54.18.96.13.43.19.78.18,1.04-.01.64-.39,1.14-1.13,1.51-.36-.33-.63-.76-.8-1.29-.17-.54-.25-1.15-.24-1.85,0-.48.07-1,.19-1.56.11-.56.2-.97.26-1.24.5-1.38.9-2.67,1.18-3.86.29-1.2.38-2.17.29-2.92-.17-2.3-1.38-4.14-3.6-5.52-2.7-1.65-4.31-3.04-4.82-4.17-.78-1.67-1.85-3.05-3.22-4.14-1.37-1.09-2.81-1.65-4.3-1.68-1.02-.01-1.96.24-2.82.75.34.49.57.92.68,1.29-1.99.13-3.73.69-5.22,1.67-1.49.99-2.8,1.47-3.93,1.46-.91-.02-1.73-.75-2.45-2.22-.73-1.46-1.66-3.07-2.81-4.8-.12.43-.12.99-.02,1.68-2.28-1.06-4.55-2-6.78-2.83-.91-.33-1.46-.63-1.67-.9-.81.37-1.99.63-3.55.79-1.56.16-2.58.29-3.06.39l.02-1c-.49.58-.81,1.1-.98,1.58l-2.3-.36c.45-1.17.92-2.36,1.42-3.59-.47-.38-.95-.79-1.42-1.23-.68-.65-1.02-1.33-1-2.03l.18-1.04,13.15.23c3.2.06,5.68.01,7.41-.13,1.74-.15,3.47-.33,5.18-.55.32,0,.59.12.8.33.3,1.01.6,2,.91,2.97.53.38,1.64.58,3.35.62,1.87.03,3.81.04,5.81.02,2-.02,3.97-.04,5.89-.06,6.1-.11,9.57-.16,10.42-.14.53,0,.99.12,1.36.34.1.32.23.62.39.89.36.6,1,1.06,1.9,1.4.01-.64-.03-1.5-.12-2.56-.09-1.07-.13-1.96-.11-2.65.48-.05,1.1-.06,1.85-.05,2.3.04,3.8.97,4.52,2.8.8,3.38,1.65,6.55,2.56,9.51,1.21,4.03,3.37,7.43,6.48,10.21,1.26,1.14,1.99,2.39,2.18,3.72,0,.16-.13.44-.38.84-.25.4-.37.76-.38,1.08,0,.43.09.88.3,1.37,2.01,4.15,3.7,7.81,5.06,10.99,1.36,3.18,2.09,5.22,2.18,6.13.09.91.15,2.04.18,3.41.03,1.37.05,2.07.05,2.12-.04,2.19-.27,4.07-.7,5.64-.43,1.57-.87,3.13-1.32,4.67,0,.37.07.78.22,1.21.49-.85.83-1.62,1-2.31-.02,1.39-.55,3.05-1.57,5.01-1.02,1.96-1.96,2.87-2.81,2.75-.21-.27.26-1.06,1.4-2.38.76-.84,1.2-1.66,1.32-2.46-1.46,1.22-3.04,1.91-4.73,2.07-1.69.16-2.74.29-3.17.39-.72-1.89-1.4-3.79-2.06-5.68-.93-2.11-2-3.17-3.23-3.2-.32,0-.7.08-1.13.26-.99-1.83-1.68-3.15-2.1-3.96-.78-1.4-1.67-2.62-2.66-3.65l-.97.62.95.74-1.28-.02c0-.27.02-.59.06-.96.03-.37.13-.72.3-1.04-.27,0-.51.1-.73.31-.21-.27-.6-1.09-1.16-2.46-.56-1.37-1.21-2.63-1.94-3.76-.26-.38-.55-.78-.86-1.22-1.41-1.84-2.24-2.98-2.5-3.41,1.24-.24,2.26-.72,3.05-1.43.79-.71,1.2-1.41,1.21-2.1,0-.37-.12-.7-.38-.97Z"/>
</svg>